<?xml version="1.0" standalone="no"?>
<!DOCTYPE svg PUBLIC "-//W3C//DTD SVG 20010904//EN"
 "http://www.w3.org/TR/2001/REC-SVG-20010904/DTD/svg10.dtd">
<svg version="1.0" xmlns="http://www.w3.org/2000/svg"
 width="806.000000pt" height="426.000000pt" viewBox="0 0 806.000000 426.000000"
 preserveAspectRatio="xMidYMid meet">

<g transform="translate(0.000000,426.000000) scale(0.100000,-0.100000)"
fill="#000000" stroke="none">
<path d="M2331 4221 c-129 -30 -194 -52 -249 -83 -18 -10 -40 -18 -48 -18 -8
0 -35 -13 -59 -30 -24 -16 -47 -30 -51 -30 -11 0 -113 -78 -162 -124 -66 -61
-182 -237 -182 -274 0 -10 -4 -22 -9 -28 -6 -5 -17 -36 -25 -69 -30 -112 -15
-365 24 -437 6 -10 10 -24 10 -32 0 -18 50 -113 88 -168 34 -48 100 -113 151
-148 l33 -23 -23 -13 c-13 -7 -33 -13 -44 -14 -11 0 -33 -7 -49 -15 -15 -8
-37 -15 -47 -15 -10 0 -20 -4 -24 -9 -8 -15 -109 -24 -170 -16 -62 7 -115 49
-115 90 0 13 -4 27 -10 30 -5 3 -10 17 -10 30 0 13 -4 26 -9 29 -4 3 -11 23
-15 43 -3 21 -13 51 -21 67 -8 15 -15 36 -15 46 0 30 -95 125 -153 154 -45 22
-68 26 -138 26 -55 0 -94 -5 -113 -15 -15 -8 -34 -15 -42 -15 -14 0 -78 -33
-103 -53 -8 -7 -82 -14 -180 -18 -184 -7 -170 -4 -298 -66 -74 -36 -105 -59
-153 -110 -33 -35 -60 -69 -60 -75 0 -6 -12 -27 -27 -47 l-28 -36 0 -192 c0
-180 1 -193 21 -215 11 -13 28 -39 37 -58 27 -58 204 -220 241 -220 35 0 46
-29 46 -124 0 -104 20 -159 82 -223 47 -49 177 -135 191 -126 35 23 165 31
473 32 l331 1 78 40 c78 40 155 54 170 30 3 -5 21 -10 39 -10 42 0 76 -35 76
-78 0 -17 5 -34 10 -37 6 -3 10 -15 10 -25 0 -11 9 -35 20 -55 11 -20 20 -44
20 -55 0 -10 5 -22 10 -25 24 -15 9 -58 -38 -108 -64 -69 -132 -179 -132 -213
0 -8 -9 -30 -21 -50 -19 -35 -20 -50 -17 -233 l3 -196 48 -98 c43 -87 61 -110
159 -207 60 -61 116 -110 123 -110 7 0 18 -7 25 -15 7 -8 54 -35 104 -59 84
-40 136 -56 286 -86 79 -17 341 -1 364 21 6 5 25 9 42 9 18 0 36 4 39 10 3 5
14 10 23 10 10 0 67 25 127 55 99 50 119 65 222 167 62 62 113 116 113 121 0
11 71 120 85 129 15 11 93 10 100 -2 8 -13 302 -13 310 0 3 5 17 10 30 10 13
0 27 4 30 10 3 5 14 10 24 10 19 0 91 34 131 63 27 19 85 23 95 7 3 -6 17 -10
30 -10 13 0 26 -4 29 -9 10 -15 84 -23 265 -28 114 -2 178 0 185 7 5 5 27 10
48 10 33 0 40 -4 50 -27 44 -110 82 -173 136 -226 81 -80 137 -107 222 -107
84 0 199 38 230 75 7 8 18 15 24 15 15 0 224 210 239 240 12 24 54 51 98 65
46 14 106 44 119 60 7 8 18 15 25 15 6 0 20 9 30 20 10 11 24 20 30 20 7 0 19
7 26 16 32 39 57 37 153 -11 50 -25 117 -52 149 -60 64 -17 290 -21 329 -6 13
5 45 14 72 20 26 6 69 21 94 32 58 27 122 22 158 -12 24 -23 32 -24 162 -24
317 1 507 62 648 207 109 113 144 199 144 352 0 75 -4 109 -17 131 -11 21 -18
72 -24 170 -13 203 -23 275 -48 318 -35 63 -31 72 94 197 98 98 122 127 155
196 39 80 40 84 42 200 1 114 0 122 -30 185 -20 42 -55 90 -97 133 -49 50 -66
74 -65 94 0 15 3 101 6 191 4 106 2 179 -5 208 -11 40 -9 49 19 107 27 58 30
73 30 166 0 93 -3 108 -30 165 -85 177 -301 299 -472 266 -156 -30 -291 -136
-370 -290 -36 -68 -51 -87 -86 -107 -23 -13 -49 -24 -57 -24 -8 0 -30 -9 -50
-20 -38 -21 -85 -26 -100 -11 -17 17 -167 91 -184 91 -10 0 -23 6 -29 13 -9 8
-71 13 -219 15 -169 3 -219 1 -282 -14 -42 -9 -80 -20 -86 -24 -5 -4 -27 -10
-47 -14 -37 -7 -37 -6 -48 36 -7 24 -16 51 -21 60 -5 10 -9 24 -9 32 0 27 -62
131 -102 173 -23 23 -75 59 -115 79 l-74 36 -132 -4 c-126 -5 -135 -6 -192
-37 -66 -36 -142 -45 -172 -20 -12 10 -52 14 -152 14 -135 0 -136 0 -181 -31
-67 -45 -117 -66 -143 -59 -12 4 -55 23 -95 42 -72 35 -76 35 -165 31 -97 -6
-146 -25 -249 -96 -85 -60 -228 -226 -228 -265 0 -8 -7 -28 -15 -43 -8 -16
-15 -41 -15 -55 0 -35 -13 -39 -133 -38 -146 1 -148 3 -167 76 -9 34 -19 65
-23 69 -4 4 -7 15 -7 24 0 9 -23 61 -50 116 -39 76 -68 116 -123 172 -128 131
-252 198 -477 262 -166 47 -290 50 -459 11z m458 -291 c92 -26 202 -80 260
-128 117 -95 181 -274 160 -445 -20 -164 -104 -266 -272 -334 -34 -14 -66 -29
-71 -33 -18 -17 108 -288 192 -414 65 -99 184 -220 270 -277 154 -101 267
-113 427 -45 154 66 217 85 276 86 92 0 117 -31 133 -166 6 -49 4 -54 -33
-101 -152 -193 -468 -264 -743 -169 -219 77 -449 311 -588 600 -26 56 -78 190
-115 299 l-68 197 -38 0 -39 0 0 -49 c0 -26 3 -76 7 -111 l6 -62 64 -29 c34
-15 63 -32 63 -36 0 -4 -7 -42 -17 -83 -20 -90 -69 -166 -165 -255 -66 -62
-168 -135 -188 -135 -21 0 -110 81 -116 105 -4 15 10 53 45 120 27 53 53 118
57 144 4 25 1 177 -6 336 -14 323 -17 339 -96 447 -46 62 -39 84 39 123 44 21
75 28 150 32 117 7 142 1 163 -38 14 -27 14 -45 5 -133 -6 -55 -12 -120 -14
-143 l-3 -43 86 0 c114 0 180 20 230 70 56 56 74 96 74 160 -1 113 -90 222
-213 261 -94 30 -238 36 -334 15 -146 -33 -266 -117 -317 -220 l-22 -46 31
-63 c17 -34 53 -100 81 -147 53 -89 70 -135 70 -185 0 -27 -6 -33 -53 -52 -81
-35 -108 -38 -155 -14 -136 69 -214 215 -215 401 -2 298 200 508 553 575 111
21 342 13 439 -15z m2742 -202 c35 -91 33 -181 -4 -236 -30 -47 -55 -57 -137
-57 -71 1 -115 26 -146 85 -30 57 -30 111 0 175 42 89 52 95 165 95 l99 0 23
-62z m-607 -6 c41 -123 61 -315 75 -727 9 -254 20 -302 82 -377 30 -38 31 -38
103 -38 l72 0 42 51 42 52 0 176 c0 97 -4 181 -8 187 -4 6 -20 14 -37 18 -122
29 -123 30 -76 112 38 66 112 131 199 177 l70 37 16 -42 c28 -76 37 -137 51
-357 8 -119 17 -230 21 -247 4 -21 29 -54 73 -98 64 -64 66 -67 63 -110 l-4
-44 -91 -12 c-51 -6 -142 -14 -204 -17 l-112 -6 -61 46 -62 45 -36 -40 c-72
-80 -188 -104 -362 -74 -144 25 -136 12 -80 128 27 55 52 115 56 134 6 33 -21
567 -34 674 -6 45 -11 56 -36 70 -45 24 -66 59 -68 114 l-3 49 65 54 c72 58
171 113 206 113 18 0 26 -10 38 -48z m-569 -53 c42 -135 55 -239 65 -529 10
-275 25 -452 40 -480 5 -8 34 -40 64 -70 52 -51 56 -57 56 -101 0 -47 0 -47
-47 -65 -62 -22 -385 -33 -408 -14 -29 24 -19 94 25 162 47 75 48 86 25 408
-8 113 -15 251 -15 308 l0 103 -31 17 c-63 34 -89 62 -89 96 0 37 43 100 94
140 35 26 175 106 188 106 4 0 19 -36 33 -81z m3178 65 c109 -55 137 -167 56
-223 -31 -21 -41 -23 -121 -18 -49 3 -88 2 -88 -2 0 -4 36 -47 80 -96 133
-149 170 -257 121 -353 -50 -98 -128 -142 -359 -203 -70 -18 -85 -26 -97 -50
-19 -36 -19 -45 3 -54 56 -22 118 -24 235 -9 140 18 216 14 282 -17 51 -24 79
-57 120 -139 27 -54 27 -54 11 -105 -60 -191 -284 -324 -551 -327 -302 -5
-481 130 -384 288 21 35 73 64 114 64 18 0 60 -26 133 -83 163 -127 153 -122
226 -102 129 36 186 81 186 146 0 31 -35 66 -79 79 -19 5 -132 7 -264 3 l-232
-5 -44 45 c-39 41 -45 52 -49 101 l-4 55 57 53 c32 29 65 58 74 65 14 11 10
18 -35 60 -78 72 -96 105 -102 182 -4 58 0 77 28 148 l32 81 67 30 c77 34 179
66 271 83 36 6 66 13 68 14 1 1 -7 28 -18 60 -11 32 -20 72 -20 90 0 40 51
109 99 135 46 24 140 26 184 4z m-1419 -417 c34 -60 39 -62 49 -16 5 21 25 36
92 70 105 53 179 63 241 31 93 -48 121 -111 138 -312 l13 -149 52 -77 c82
-122 82 -121 -32 -248 -88 -98 -142 -130 -219 -131 -31 0 -61 5 -66 10 -6 6
-2 52 10 125 30 170 30 362 0 457 -12 40 -26 74 -30 77 -7 4 -180 -38 -188
-46 -1 -2 -12 -50 -24 -108 -31 -150 -16 -213 76 -325 27 -33 60 -74 72 -92
l22 -31 -52 -20 c-79 -29 -190 -44 -312 -40 l-109 3 -30 38 -31 38 61 62 c83
85 99 129 85 239 -6 46 -14 108 -17 139 l-6 57 -60 11 -59 12 1 37 c0 20 8 62
17 92 17 54 21 57 127 129 l108 73 19 -23 c10 -13 34 -50 52 -82z m-2351 -110
c73 -33 151 -106 181 -171 49 -106 68 -252 46 -366 -23 -123 -105 -237 -206
-286 -98 -48 -317 -42 -410 11 -141 82 -223 281 -195 473 26 178 122 296 286
355 75 27 222 19 298 -16z m-2683 -339 c0 -68 -15 -120 -41 -143 -20 -19 -19
-19 37 -39 68 -25 68 -26 79 -178 l7 -104 51 17 c65 23 135 24 187 3 46 -18
45 -16 60 -163 9 -96 13 -107 46 -153 44 -59 42 -66 -50 -156 l-61 -60 -58 11
c-42 7 -56 14 -53 24 42 109 50 244 18 316 -11 26 -23 47 -26 47 -3 0 -30 -11
-59 -24 l-54 -23 5 -89 c4 -84 7 -91 49 -157 24 -38 43 -71 41 -72 -6 -6 -196
-25 -248 -25 l-50 0 0 35 c0 24 12 53 36 90 l36 54 -11 64 c-6 35 -11 97 -12
138 -1 41 -4 100 -8 132 -5 48 -10 60 -31 70 -41 20 -39 75 5 149 20 33 34 62
33 64 -6 5 -167 -9 -178 -16 -10 -6 -10 -59 -3 -238 l10 -231 41 -54 c23 -30
42 -58 42 -63 -1 -22 -120 -160 -163 -190 -44 -30 -130 -55 -143 -41 -4 3 6
57 21 119 44 182 44 297 -1 366 l-15 22 -35 -27 c-72 -54 -212 -39 -269 29
-50 60 -68 108 -68 184 0 116 53 197 162 248 41 19 66 21 245 23 l199 2 31 29
c47 45 85 61 144 62 l52 0 0 -52z m855 -427 c107 -48 150 -197 74 -253 -35
-26 -89 -37 -181 -38 -42 0 -79 -3 -82 -8 -2 -4 2 -22 9 -39 16 -38 13 -38
175 3 52 13 98 24 102 24 4 0 8 -17 8 -39 0 -51 -34 -100 -90 -129 -39 -20
-57 -23 -131 -20 -114 4 -157 31 -201 125 -57 120 -36 249 57 352 l37 41 92 0
c67 0 102 -5 131 -19z m915 -371 c27 -28 65 -83 84 -123 35 -70 65 -199 54
-228 -3 -8 -31 -29 -62 -48 -55 -33 -56 -33 -79 -15 -116 91 -201 151 -251
176 l-60 30 -56 -17 c-93 -29 -104 -38 -123 -98 -22 -70 -22 -79 6 -104 34
-32 106 -64 302 -138 203 -76 340 -143 391 -192 44 -43 108 -177 129 -273 10
-45 18 -121 18 -187 l1 -112 -43 -87 c-75 -151 -210 -263 -386 -321 -106 -35
-312 -44 -420 -19 -108 26 -221 85 -301 159 -106 98 -154 209 -154 357 0 180
77 311 225 384 120 58 251 57 346 -5 70 -45 73 -54 41 -133 -27 -66 -27 -66
-82 -82 -122 -35 -155 -48 -189 -80 -34 -31 -36 -36 -36 -96 0 -76 39 -165 88
-202 39 -30 133 -62 208 -70 112 -14 258 35 331 111 106 110 116 301 23 439
-57 82 -106 111 -345 198 -292 107 -389 168 -438 275 -29 63 -34 161 -12 226
20 62 86 152 138 190 84 61 141 77 287 83 107 4 138 8 180 27 27 13 69 24 93
24 39 1 48 -4 92 -49z m4602 -185 c20 -38 51 -102 67 -142 32 -80 32 -81 -33
-108 -60 -25 -124 -6 -242 72 -44 29 -57 33 -88 28 -35 -7 -36 -8 -36 -55 l0
-49 53 -19 c28 -11 84 -30 122 -42 131 -43 231 -104 260 -161 21 -39 19 -131
-5 -213 -22 -77 -29 -84 -120 -129 -59 -29 -75 -32 -180 -35 -97 -3 -123 -7
-164 -28 -75 -36 -95 -32 -153 29 -63 67 -104 153 -111 233 l-5 61 33 12 c68
23 127 8 250 -64 42 -24 95 -51 118 -59 40 -14 44 -14 62 4 11 11 20 31 20 44
0 13 3 36 6 52 l6 29 -134 44 c-73 24 -168 59 -210 79 -68 30 -82 41 -109 85
-29 47 -31 55 -24 111 11 104 59 186 130 224 21 11 70 18 155 22 100 4 133 10
165 27 25 13 56 20 84 19 45 -1 45 -1 83 -71z m-901 -47 c108 -50 175 -134
199 -251 22 -110 -6 -173 -94 -212 -71 -31 -111 -37 -276 -44 l-146 -6 8 -41
c7 -35 14 -44 49 -60 62 -27 127 -21 259 25 63 23 131 41 151 41 36 0 36 -1
43 -46 12 -88 8 -111 -26 -149 -49 -57 -226 -135 -304 -135 -151 0 -321 103
-384 234 -130 269 -24 581 225 663 25 8 77 12 140 10 83 -2 110 -7 156 -29z
m-891 -48 c91 -46 174 -159 205 -275 19 -76 19 -234 0 -308 -35 -134 -118
-241 -214 -278 -101 -38 -226 -14 -291 56 -20 22 -25 37 -25 81 0 81 20 97
136 102 l91 5 28 39 c42 58 64 130 57 193 -7 71 -28 108 -83 146 -41 28 -50
31 -97 25 -67 -9 -125 -42 -151 -86 -20 -33 -21 -50 -20 -256 1 -245 -1 -237
76 -325 61 -71 63 -99 9 -166 -61 -77 -166 -172 -213 -193 -24 -11 -60 -20
-81 -20 -32 0 -39 4 -48 28 -12 31 -7 132 14 242 11 63 11 104 1 250 -7 96
-13 226 -13 288 l-1 113 -60 26 c-61 27 -64 30 -74 94 -6 35 -3 39 64 102 73
69 141 111 201 122 32 6 37 3 66 -33 l32 -40 78 39 c42 21 95 43 117 48 61 15
146 6 196 -19z m-1065 -52 c159 -39 248 -182 270 -430 7 -86 -4 -136 -57 -241
-72 -144 -180 -197 -400 -197 -79 0 -107 4 -138 20 -56 29 -130 107 -167 176
-52 98 -66 163 -61 281 4 93 8 109 41 176 68 138 154 207 282 226 65 10 167 5
230 -11z m-829 -23 c90 -27 171 -76 192 -115 8 -15 11 -48 9 -83 -3 -46 -9
-63 -30 -84 -29 -30 -17 -32 -176 27 -53 19 -106 31 -145 33 l-61 2 -29 -59
c-24 -46 -31 -75 -34 -140 -4 -74 -1 -86 25 -136 22 -42 39 -60 73 -78 55 -28
98 -25 225 18 49 17 110 30 136 30 46 0 46 0 53 -37 10 -62 7 -112 -8 -142
-18 -34 -105 -95 -165 -116 -102 -35 -258 -28 -347 17 -59 29 -135 110 -172
184 -43 85 -56 155 -50 272 4 88 9 109 40 174 37 78 96 144 162 183 31 18 183
71 215 74 3 1 42 -10 87 -24z"/>
<path d="M7120 3232 c-24 -11 -43 -32 -59 -66 -33 -66 -23 -89 57 -139 l63
-40 86 38 c47 21 94 46 106 55 l20 17 -27 59 c-41 90 -47 94 -135 94 -52 0
-87 -5 -111 -18z"/>
<path d="M3541 3030 c-47 -11 -82 -40 -111 -91 -22 -38 -25 -56 -25 -134 0
-77 4 -98 27 -148 24 -50 34 -61 74 -79 56 -24 148 -21 190 7 58 38 82 158 60
298 -10 66 -61 122 -129 142 -28 8 -51 15 -51 14 -1 -1 -16 -5 -35 -9z"/>
<path d="M550 2699 c-97 -12 -125 -37 -141 -127 -6 -35 -9 -65 -6 -68 3 -3 47
-9 99 -14 51 -4 106 -13 121 -19 16 -6 31 -11 35 -11 7 0 -5 213 -13 238 -2 6
-8 11 -12 11 -4 -1 -42 -5 -83 -10z"/>
<path d="M1792 2340 c-57 -15 -106 -31 -109 -34 -9 -9 15 -33 51 -50 44 -21
115 -20 145 0 23 17 51 70 51 99 0 20 -17 18 -138 -15z"/>
<path d="M6325 1665 c-5 -2 -23 -6 -38 -10 -24 -5 -34 -19 -63 -82 -19 -41
-33 -77 -32 -78 6 -6 180 15 250 30 40 8 76 15 81 15 4 0 7 12 7 28 0 61 -61
103 -147 101 -26 0 -52 -2 -58 -4z"/>
<path d="M4370 1544 c-75 -31 -111 -145 -91 -288 14 -97 29 -125 81 -155 35
-19 52 -23 106 -19 97 6 145 50 166 150 9 43 9 74 1 121 -13 75 -49 164 -73
177 -21 11 -169 22 -190 14z"/>
</g>
</svg>
